TITLE ""
FILE "TOEIC LR Kinnojyukugo_03.mp3" MP3
  TRACK 01 AUDIO
    TITLE "TOEIC LR Kinnojyukugo_03_001"
    INDEX 01 00:00:00
  TRACK 02 AUDIO
    TITLE "TOEIC LR Kinnojyukugo_03_002"
    INDEX 01 00:00:12
  TRACK 03 AUDIO
    TITLE "TOEIC LR Kinnojyukugo_03_003"
    INDEX 01 00:01:20
  TRACK 04 AUDIO
    TITLE "TOEIC LR Kinnojyukugo_03_004"
    INDEX 01 00:01:59
  TRACK 05 AUDIO
    TITLE "TOEIC LR Kinnojyukugo_03_005"
    INDEX 01 00:03:16
  TRACK 06 AUDIO
    TITLE "TOEIC LR Kinnojyukugo_03_006"
    INDEX 01 00:03:56
  TRACK 07 AUDIO
    TITLE "TOEIC LR Kinnojyukugo_03_007"
    INDEX 01 00:06:50
  TRACK 08 AUDIO
    TITLE "TOEIC LR Kinnojyukugo_03_008"
    INDEX 01 00:07:12
  TRACK 09 AUDIO
    TITLE "TOEIC LR Kinnojyukugo_03_009"
    INDEX 01 00:09:72
  TRACK 10 AUDIO
    TITLE "TOEIC LR Kinnojyukugo_03_010"
    INDEX 01 00:10:22
  TRACK 11 AUDIO
    TITLE "TOEIC LR Kinnojyukugo_03_011"
    INDEX 01 00:13:05
  TRACK 12 AUDIO
    TITLE "TOEIC LR Kinnojyukugo_03_012"
    INDEX 01 00:14:07
  TRACK 13 AUDIO
    TITLE "TOEIC LR Kinnojyukugo_03_013"
    INDEX 01 00:15:14
  TRACK 14 AUDIO
    TITLE "TOEIC LR Kinnojyukugo_03_014"
    INDEX 01 00:15:53
  TRACK 15 AUDIO
    TITLE "TOEIC LR Kinnojyukugo_03_015"
    INDEX 01 00:17:56
  TRACK 16 AUDIO
    TITLE "TOEIC LR Kinnojyukugo_03_016"
    INDEX 01 00:18:28
  TRACK 17 AUDIO
    TITLE "TOEIC LR Kinnojyukugo_03_017"
    INDEX 01 00:20:44
  TRACK 18 AUDIO
    TITLE "TOEIC LR Kinnojyukugo_03_018"
    INDEX 01 00:21:14
  TRACK 19 AUDIO
    TITLE "TOEIC LR Kinnojyukugo_03_019"
    INDEX 01 00:23:37
  TRACK 20 AUDIO
    TITLE "TOEIC LR Kinnojyukugo_03_020"
    INDEX 01 00:23:68
  TRACK 21 AUDIO
    TITLE "TOEIC LR Kinnojyukugo_03_021"
    INDEX 01 00:26:18
  TRACK 22 AUDIO
    TITLE "TOEIC LR Kinnojyukugo_03_022"
    INDEX 01 00:27:17
  TRACK 23 AUDIO
    TITLE "TOEIC LR Kinnojyukugo_03_023"
    INDEX 01 00:28:28
  TRACK 24 AUDIO
    TITLE "TOEIC LR Kinnojyukugo_03_024"
    INDEX 01 00:28:67
  TRACK 25 AUDIO
    TITLE "TOEIC LR Kinnojyukugo_03_025"
    INDEX 01 00:31:27
  TRACK 26 AUDIO
    TITLE "TOEIC LR Kinnojyukugo_03_026"
    INDEX 01 00:31:68
  TRACK 27 AUDIO
    TITLE "TOEIC LR Kinnojyukugo_03_027"
    INDEX 01 00:34:44
  TRACK 28 AUDIO
    TITLE "TOEIC LR Kinnojyukugo_03_028"
    INDEX 01 00:35:07
  TRACK 29 AUDIO
    TITLE "TOEIC LR Kinnojyukugo_03_029"
    INDEX 01 00:37:37
  TRACK 30 AUDIO
    TITLE "TOEIC LR Kinnojyukugo_03_030"
    INDEX 01 00:37:62
  TRACK 31 AUDIO
    TITLE "TOEIC LR Kinnojyukugo_03_031"
    INDEX 01 00:40:16
  TRACK 32 AUDIO
    TITLE "TOEIC LR Kinnojyukugo_03_032"
    INDEX 01 00:41:17
  TRACK 33 AUDIO
    TITLE "TOEIC LR Kinnojyukugo_03_033"
    INDEX 01 00:42:24
  TRACK 34 AUDIO
    TITLE "TOEIC LR Kinnojyukugo_03_034"
    INDEX 01 00:42:56
  TRACK 35 AUDIO
    TITLE "TOEIC LR Kinnojyukugo_03_035"
    INDEX 01 00:44:13
  TRACK 36 AUDIO
    TITLE "TOEIC LR Kinnojyukugo_03_036"
    INDEX 01 00:44:59
  TRACK 37 AUDIO
    TITLE "TOEIC LR Kinnojyukugo_03_037"
    INDEX 01 00:47:27
  TRACK 38 AUDIO
    TITLE "TOEIC LR Kinnojyukugo_03_038"
    INDEX 01 00:47:67
  TRACK 39 AUDIO
    TITLE "TOEIC LR Kinnojyukugo_03_039"
    INDEX 01 00:50:12
  TRACK 40 AUDIO
    TITLE "TOEIC LR Kinnojyukugo_03_040"
    INDEX 01 00:50:36
  TRACK 41 AUDIO
    TITLE "TOEIC LR Kinnojyukugo_03_041"
    INDEX 01 00:52:56
  TRACK 42 AUDIO
    TITLE "TOEIC LR Kinnojyukugo_03_042"
    INDEX 01 00:53:57
  TRACK 43 AUDIO
    TITLE "TOEIC LR Kinnojyukugo_03_043"
    INDEX 01 00:54:67
  TRACK 44 AUDIO
    TITLE "TOEIC LR Kinnojyukugo_03_044"
    INDEX 01 00:55:27
  TRACK 45 AUDIO
    TITLE "TOEIC LR Kinnojyukugo_03_045"
    INDEX 01 00:56:30
  TRACK 46 AUDIO
    TITLE "TOEIC LR Kinnojyukugo_03_046"
    INDEX 01 00:56:70
  TRACK 47 AUDIO
    TITLE "TOEIC LR Kinnojyukugo_03_047"
    INDEX 01 00:59:01
  TRACK 48 AUDIO
    TITLE "TOEIC LR Kinnojyukugo_03_048"
    INDEX 01 00:59:40
  TRACK 49 AUDIO
    TITLE "TOEIC LR Kinnojyukugo_03_049"
    INDEX 01 01:02:13
  TRACK 50 AUDIO
    TITLE "TOEIC LR Kinnojyukugo_03_050"
    INDEX 01 01:02:39
  TRACK 51 AUDIO
    TITLE "TOEIC LR Kinnojyukugo_03_051"
    INDEX 01 01:05:10
  TRACK 52 AUDIO
    TITLE "TOEIC LR Kinnojyukugo_03_052"
    INDEX 01 01:06:11
  TRACK 53 AUDIO
    TITLE "TOEIC LR Kinnojyukugo_03_053"
    INDEX 01 01:07:20
  TRACK 54 AUDIO
    TITLE "TOEIC LR Kinnojyukugo_03_054"
    INDEX 01 01:07:60
  TRACK 55 AUDIO
    TITLE "TOEIC LR Kinnojyukugo_03_055"
    INDEX 01 01:10:42
  TRACK 56 AUDIO
    TITLE "TOEIC LR Kinnojyukugo_03_056"
    INDEX 01 01:11:04
  TRACK 57 AUDIO
    TITLE "TOEIC LR Kinnojyukugo_03_057"
    INDEX 01 01:13:17
  TRACK 58 AUDIO
    TITLE "TOEIC LR Kinnojyukugo_03_058"
    INDEX 01 01:13:54
  TRACK 59 AUDIO
    TITLE "TOEIC LR Kinnojyukugo_03_059"
    INDEX 01 01:16:39
  TRACK 60 AUDIO
    TITLE "TOEIC LR Kinnojyukugo_03_060"
    INDEX 01 01:16:68
  TRACK 61 AUDIO
    TITLE "TOEIC LR Kinnojyukugo_03_061"
    INDEX 01 01:19:49
  TRACK 62 AUDIO
    TITLE "TOEIC LR Kinnojyukugo_03_062"
    INDEX 01 01:20:50
  TRACK 63 AUDIO
    TITLE "TOEIC LR Kinnojyukugo_03_063"
    INDEX 01 01:21:54
  TRACK 64 AUDIO
    TITLE "TOEIC LR Kinnojyukugo_03_064"
    INDEX 01 01:22:14
  TRACK 65 AUDIO
    TITLE "TOEIC LR Kinnojyukugo_03_065"
    INDEX 01 01:23:23
  TRACK 66 AUDIO
    TITLE "TOEIC LR Kinnojyukugo_03_066"
    INDEX 01 01:23:64
  TRACK 67 AUDIO
    TITLE "TOEIC LR Kinnojyukugo_03_067"
    INDEX 01 01:25:73
  TRACK 68 AUDIO
    TITLE "TOEIC LR Kinnojyukugo_03_068"
    INDEX 01 01:26:37
  TRACK 69 AUDIO
    TITLE "TOEIC LR Kinnojyukugo_03_069"
    INDEX 01 01:28:52
  TRACK 70 AUDIO
    TITLE "TOEIC LR Kinnojyukugo_03_070"
    INDEX 01 01:29:02
  TRACK 71 AUDIO
    TITLE "TOEIC LR Kinnojyukugo_03_071"
    INDEX 01 01:31:17
  TRACK 72 AUDIO
    TITLE "TOEIC LR Kinnojyukugo_03_072"
    INDEX 01 01:32:18
  TRACK 73 AUDIO
    TITLE "TOEIC LR Kinnojyukugo_03_073"
    INDEX 01 01:33:35
  TRACK 74 AUDIO
    TITLE "TOEIC LR Kinnojyukugo_03_074"
    INDEX 01 01:34:02
  TRACK 75 AUDIO
    TITLE "TOEIC LR Kinnojyukugo_03_075"
    INDEX 01 01:35:68
  TRACK 76 AUDIO
    TITLE "TOEIC LR Kinnojyukugo_03_076"
    INDEX 01 01:36:30
  TRACK 77 AUDIO
    TITLE "TOEIC LR Kinnojyukugo_03_077"
    INDEX 01 01:38:39
  TRACK 78 AUDIO
    TITLE "TOEIC LR Kinnojyukugo_03_078"
    INDEX 01 01:39:03
  TRACK 79 AUDIO
    TITLE "TOEIC LR Kinnojyukugo_03_079"
    INDEX 01 01:41:15
  TRACK 80 AUDIO
    TITLE "TOEIC LR Kinnojyukugo_03_080"
    INDEX 01 01:41:41
  TRACK 81 AUDIO
    TITLE "TOEIC LR Kinnojyukugo_03_081"
    INDEX 01 01:43:52
  TRACK 82 AUDIO
    TITLE "TOEIC LR Kinnojyukugo_03_082"
    INDEX 01 01:44:53
  TRACK 83 AUDIO
    TITLE "TOEIC LR Kinnojyukugo_03_083"
    INDEX 01 01:45:52
  TRACK 84 AUDIO
    TITLE "TOEIC LR Kinnojyukugo_03_084"
    INDEX 01 01:46:18
  TRACK 85 AUDIO
    TITLE "TOEIC LR Kinnojyukugo_03_085"
    INDEX 01 01:48:62
  TRACK 86 AUDIO
    TITLE "TOEIC LR Kinnojyukugo_03_086"
    INDEX 01 01:49:25
  TRACK 87 AUDIO
    TITLE "TOEIC LR Kinnojyukugo_03_087"
    INDEX 01 01:51:55
  TRACK 88 AUDIO
    TITLE "TOEIC LR Kinnojyukugo_03_088"
    INDEX 01 01:52:17
  TRACK 89 AUDIO
    TITLE "TOEIC LR Kinnojyukugo_03_089"
    INDEX 01 01:54:40
  TRACK 90 AUDIO
    TITLE "TOEIC LR Kinnojyukugo_03_090"
    INDEX 01 01:54:65
  TRACK 91 AUDIO
    TITLE "TOEIC LR Kinnojyukugo_03_091"
    INDEX 01 01:57:12
  TRACK 92 AUDIO
    TITLE "TOEIC LR Kinnojyukugo_03_092"
    INDEX 01 01:58:16
  TRACK 93 AUDIO
    TITLE "TOEIC LR Kinnojyukugo_03_093"
    INDEX 01 01:59:21
  TRACK 94 AUDIO
    TITLE "TOEIC LR Kinnojyukugo_03_094"
    INDEX 01 01:59:58
  TRACK 95 AUDIO
    TITLE "TOEIC LR Kinnojyukugo_03_095"
    INDEX 01 02:00:68
  TRACK 96 AUDIO
    TITLE "TOEIC LR Kinnojyukugo_03_096"
    INDEX 01 02:01:30
  TRACK 97 AUDIO
    TITLE "TOEIC LR Kinnojyukugo_03_097"
    INDEX 01 02:03:64
  TRACK 98 AUDIO
    TITLE "TOEIC LR Kinnojyukugo_03_098"
    INDEX 01 02:04:28
  TRACK 99 AUDIO
    TITLE "TOEIC LR Kinnojyukugo_03_099"
    INDEX 01 02:06:23
  TRACK 100 AUDIO
    TITLE "TOEIC LR Kinnojyukugo_03_100"
    INDEX 01 02:06:49
  TRACK 101 AUDIO
    TITLE "TOEIC LR Kinnojyukugo_03_101"
    INDEX 01 02:08:44
